<svg width="204" height="48" viewBox="0 0 204 48" fill="none" xmlns="http://www.w3.org/2000/svg">
<g clip-path="url(#clip0_4089_518)">
<path d="M19.1878 6.88307V22.7376C19.1878 24.4536 17.7973 25.8455 16.0799 25.8455H0C0.817473 15.6278 8.96274 7.47666 19.1775 6.65771C19.1848 6.73283 19.1863 6.80648 19.1863 6.88307H19.1878Z" fill="#F4CE47"/>
<path d="M41.7603 25.8457H25.6804C23.9644 25.8457 22.5725 24.4538 22.5725 22.7378V6.88326C22.5725 6.80666 22.5755 6.73154 22.5813 6.6579C32.7961 7.47684 40.9428 15.628 41.7588 25.8457H41.7603Z" fill="#F4CE47"/>
<path d="M19.1878 32.337V48.1931C19.1878 48.2682 19.1848 48.3418 19.1789 48.417C8.96274 47.5965 0.817473 39.4483 0 29.2307H16.0799C17.7973 29.2307 19.1878 30.6211 19.1878 32.337Z" fill="#F4CE47"/>
<path d="M41.7604 29.2304C40.9429 39.448 32.7977 47.5962 22.5829 48.4152C22.5756 48.3401 22.5741 48.2664 22.5741 48.1913V32.3353C22.5741 30.6193 23.966 29.2289 25.682 29.2289H41.7619L41.7604 29.2304Z" fill="#F4CE47"/>
<path d="M62.209 34.1H55.0344V20.2074H61.8776C62.8733 20.2074 63.7099 20.3282 64.3875 20.5697C65.065 20.8113 65.5761 21.1884 65.9223 21.6995C66.2669 22.2106 66.4407 22.8675 66.4407 23.6688C66.4407 24.47 66.2095 25.1726 65.7455 25.6911C65.2816 26.2096 64.5878 26.5233 63.6613 26.6352V26.8429C64.7808 26.9254 65.6174 27.2863 66.1712 27.9211C66.7235 28.5574 67.0005 29.3454 67.0005 30.2851C67.0005 31.0599 66.8237 31.733 66.4717 32.3075C66.1197 32.8819 65.5865 33.3238 64.875 33.6346C64.1621 33.9454 63.274 34.1015 62.2105 34.1015L62.209 34.1ZM58.1452 23.006V25.7014H61.6699C62.2503 25.7014 62.6715 25.6116 62.9352 25.4319C63.1974 25.2522 63.3285 24.8928 63.3285 24.3537C63.3285 23.7866 63.193 23.4198 62.9234 23.2549C62.6539 23.0899 62.2355 23.006 61.6685 23.006H58.1438H58.1452ZM58.1452 28.2319V31.3015H62.1059C62.673 31.3015 63.1075 31.2116 63.4124 31.0319C63.7158 30.8522 63.869 30.4383 63.869 29.7873C63.869 29.1363 63.7203 28.6811 63.4227 28.5014C63.1252 28.3217 62.6863 28.2319 62.1059 28.2319H58.1452Z" fill="white"/>
<path d="M71.2704 34.1H68.1595V20.2074H71.2704V34.1015V34.1Z" fill="white"/>
<path d="M78.4878 34.3077C77.1607 34.3077 76.0412 34.0205 75.128 33.4475C74.2163 32.8745 73.5211 32.0512 73.0438 30.9803C72.5666 29.9095 72.328 28.634 72.328 27.1537C72.328 25.6734 72.5976 24.4406 73.1366 23.3697C73.6757 22.2989 74.4505 21.4697 75.4594 20.882C76.4684 20.2943 77.6777 20.0012 79.0887 20.0012C80.4998 20.0012 81.6325 20.2192 82.5722 20.6551C83.5119 21.0911 84.2233 21.7024 84.7079 22.4904C85.191 23.2784 85.4341 24.2255 85.4341 25.3317V25.4348H82.1377V25.3523C82.1377 24.4671 81.902 23.8558 81.4321 23.517C80.9623 23.1783 80.1595 23.0089 79.0269 23.0089C78.2389 23.0089 77.5967 23.1267 77.0988 23.3609C76.601 23.5966 76.2342 24.0149 76 24.6158C75.7643 25.2168 75.648 26.0637 75.648 27.1566C75.648 28.2495 75.7717 29.12 76.0206 29.7284C76.2695 30.3367 76.6628 30.7579 77.2019 30.9936C77.741 31.2293 78.4465 31.3456 79.317 31.3456C80.0491 31.3456 80.6471 31.2911 81.1111 31.1792C81.5735 31.0687 81.9197 30.861 82.148 30.5576C82.3763 30.2542 82.4897 29.8182 82.4897 29.2511V28.3173H85.4753V28.6281L82.8211 31.9878H82.4691C82.3306 32.3472 82.1067 32.7066 81.7945 33.066C81.4837 33.4254 81.058 33.7229 80.5189 33.9571C79.9798 34.1913 79.3023 34.3091 78.4863 34.3091L78.4878 34.3077ZM85.4753 29.31H78.694V26.7177H85.4753V29.31ZM85.4753 34.1H82.5928V30.347L82.4897 30.0981V27.0918H85.4753V34.1015V34.1Z" fill="white"/>
<path d="M97.7507 34.1H90.576V20.2074H97.4193C98.415 20.2074 99.2516 20.3282 99.9276 20.5697C100.605 20.8113 101.116 21.1884 101.462 21.6995C101.807 22.2106 101.981 22.8675 101.981 23.6688C101.981 24.47 101.75 25.1726 101.286 25.6911C100.822 26.2096 100.128 26.5233 99.2015 26.6352V26.8429C100.321 26.9254 101.158 27.2863 101.71 27.9211C102.262 28.5574 102.539 29.3454 102.539 30.2851C102.539 31.0599 102.362 31.733 102.01 32.3075C101.658 32.8819 101.125 33.3238 100.414 33.6346C99.7023 33.9454 98.8141 34.1015 97.7492 34.1015L97.7507 34.1ZM93.6869 23.006V25.7014H97.2116C97.7919 25.7014 98.2132 25.6116 98.4768 25.4319C98.739 25.2522 98.8716 24.8928 98.8716 24.3537C98.8716 23.7866 98.7361 23.4198 98.4665 23.2549C98.197 23.0884 97.7786 23.006 97.2116 23.006H93.6869ZM93.6869 28.2319V31.3015H97.6476C98.2146 31.3015 98.6491 31.2116 98.954 31.0319C99.2575 30.8522 99.4106 30.4383 99.4106 29.7873C99.4106 29.1363 99.2619 28.6811 98.9644 28.5014C98.6668 28.3217 98.2279 28.2319 97.6476 28.2319H93.6869Z" fill="white"/>
<path d="M109.923 34.308C108.527 34.308 107.333 34.0149 106.345 33.4272C105.357 32.8395 104.592 32.0102 104.053 30.9394C103.514 29.8686 103.245 28.6063 103.245 27.1554C103.245 25.7046 103.514 24.4423 104.053 23.3715C104.592 22.3007 105.357 21.4714 106.345 20.8837C107.333 20.296 108.525 20.0029 109.923 20.0029C111.321 20.0029 112.495 20.2975 113.49 20.8837C114.486 21.4714 115.249 22.3007 115.782 23.3715C116.314 24.4423 116.58 25.7046 116.58 27.1554C116.58 28.6063 116.314 29.8686 115.782 30.9394C115.25 32.0102 114.486 32.8409 113.49 33.4272C112.495 34.0149 111.306 34.308 109.923 34.308ZM109.923 31.3017C110.711 31.3017 111.35 31.181 111.841 30.9394C112.331 30.6978 112.69 30.2751 112.919 29.6741C113.147 29.0732 113.261 28.2322 113.261 27.154C113.261 26.0758 113.147 25.2186 112.919 24.6235C112.69 24.0299 112.331 23.6116 111.841 23.3686C111.35 23.127 110.711 23.0062 109.923 23.0062C109.135 23.0062 108.475 23.127 107.984 23.3686C107.494 23.6101 107.135 24.0284 106.906 24.6235C106.678 25.2186 106.565 26.0611 106.565 27.154C106.565 28.2469 106.678 29.0717 106.906 29.6741C107.135 30.2751 107.494 30.6978 107.984 30.9394C108.475 31.181 109.122 31.3017 109.923 31.3017Z" fill="white"/>
<path d="M124.169 34.308C122.773 34.308 121.58 34.0149 120.591 33.4272C119.603 32.8395 118.839 32.0102 118.299 30.9394C117.76 29.8686 117.491 28.6063 117.491 27.1554C117.491 25.7046 117.76 24.4423 118.299 23.3715C118.839 22.3007 119.603 21.4714 120.591 20.8837C121.58 20.296 122.771 20.0029 124.169 20.0029C125.567 20.0029 126.741 20.2975 127.737 20.8837C128.732 21.4714 129.495 22.3007 130.028 23.3715C130.56 24.4423 130.827 25.7046 130.827 27.1554C130.827 28.6063 130.56 29.8686 130.028 30.9394C129.497 32.0102 128.732 32.8409 127.737 33.4272C126.741 34.0149 125.552 34.308 124.169 34.308ZM124.169 31.3017C124.957 31.3017 125.596 31.181 126.087 30.9394C126.577 30.6978 126.937 30.2751 127.165 29.6741C127.393 29.0732 127.507 28.2322 127.507 27.154C127.507 26.0758 127.393 25.2186 127.165 24.6235C126.937 24.0299 126.577 23.6116 126.087 23.3686C125.596 23.127 124.957 23.0062 124.169 23.0062C123.381 23.0062 122.721 23.127 122.231 23.3686C121.74 23.6101 121.381 24.0284 121.153 24.6235C120.924 25.2186 120.811 26.0611 120.811 27.154C120.811 28.2469 120.924 29.0717 121.153 29.6741C121.381 30.2751 121.74 30.6978 122.231 30.9394C122.721 31.181 123.368 31.3017 124.169 31.3017Z" fill="white"/>
<path d="M135.014 34.1H131.903V20.2074H135.014V34.1015V34.1ZM144.366 34.1H140.798L137.687 28.7504H133.416V25.7441H137.646L140.901 20.2074H144.426L140.237 27.0918L144.364 34.1015L144.366 34.1Z" fill="white"/>
<path d="M150.256 34.3078C148.901 34.3078 147.781 34.1281 146.896 33.7687C146.011 33.4093 145.354 32.8776 144.927 32.1721C144.498 31.4665 144.285 30.6034 144.285 29.5797V29.3102H147.334V29.5179C147.334 30.029 147.416 30.4266 147.583 30.7109C147.749 30.9952 148.05 31.1955 148.484 31.3119C148.92 31.4297 149.559 31.4886 150.402 31.4886C151.244 31.4886 151.875 31.3929 152.165 31.1985C152.455 31.0055 152.601 30.6726 152.601 30.2028C152.601 29.8846 152.555 29.6298 152.465 29.4354C152.376 29.2424 152.178 29.0804 151.875 28.9478C151.57 28.8167 151.094 28.7019 150.445 28.6061L147.998 28.1701C147.113 28.0184 146.391 27.7651 145.831 27.413C145.272 27.061 144.864 26.6177 144.607 26.0859C144.351 25.5542 144.224 24.9282 144.224 24.2094C144.224 23.4906 144.407 22.8131 144.774 22.1768C145.141 21.5405 145.734 21.0191 146.557 20.6111C147.379 20.2031 148.447 19.9998 149.761 19.9998C151.075 19.9998 152.163 20.2075 152.985 20.6214C153.807 21.0368 154.413 21.6068 154.8 22.3315C155.187 23.0576 155.38 23.8839 155.38 24.8089V24.9754H152.311V24.7471C152.311 24.2639 152.234 23.8839 152.082 23.607C151.931 23.3301 151.661 23.1298 151.274 23.0061C150.886 22.8823 150.347 22.819 149.657 22.819C148.771 22.819 148.16 22.9192 147.821 23.1195C147.482 23.3198 147.313 23.6409 147.313 24.0842C147.313 24.3744 147.368 24.6057 147.48 24.7795C147.59 24.9518 147.787 25.0873 148.07 25.1845C148.353 25.2817 148.765 25.3848 149.304 25.4953L151.772 25.9725C152.739 26.1522 153.51 26.4394 154.084 26.8327C154.657 27.2275 155.07 27.7003 155.318 28.2526C155.567 28.8064 155.691 29.4206 155.691 30.0982C155.691 30.8317 155.511 31.5181 155.152 32.1618C154.793 32.8039 154.218 33.3224 153.432 33.7172C152.644 34.1119 151.586 34.3078 150.259 34.3078H150.256Z" fill="white"/>
<path d="M159.628 34.1H156.517V20.2074H159.628V34.1015V34.1ZM167.259 28.5014H157.389V25.722H167.259V28.5014ZM168.794 34.1H165.683V20.2074H168.794V34.1015V34.1Z" fill="white"/>
<path d="M173.502 34.1001H170.391V20.2075H173.502V34.1016V34.1001ZM180.987 23.0061H171.261V20.2061H180.987V23.0061ZM180.676 28.5016H171.261V25.7222H180.676V28.5016ZM180.987 34.1001H171.261V31.3001H180.987V34.1001Z" fill="white"/>
<path d="M185.32 34.1H182.21V20.2074H185.32V34.1015V34.1ZM192.495 34.1H183.08V31.3H192.495V34.1Z" fill="white"/>
<path d="M196.359 34.1001H193.248V20.2075H196.359V34.1016V34.1001ZM203.679 23.0061H194.12V20.2061H203.679V23.0061ZM203.368 28.9582H194.12V26.1788H203.368V28.9582Z" fill="white"/>
</g>
<defs>
<clipPath id="clip0_4089_518">
<rect width="204" height="48" fill="white"/>
</clipPath>
</defs>
</svg>
