<svg width="60" height="49" viewBox="0 0 60 49" fill="none" xmlns="http://www.w3.org/2000/svg">
<path d="M46.7939 57.4594C44.0225 57.4594 41.6667 56.8219 39.7267 55.5471C37.8421 54.2722 36.4009 52.5816 35.4032 50.4753C34.4609 48.369 33.9897 46.0964 33.9897 43.6575C33.9897 41.2186 34.4609 38.946 35.4032 36.8397C36.4009 34.7333 37.8421 33.0428 39.7267 31.7679C41.6667 30.493 44.0225 29.8556 46.7939 29.8556C49.6208 29.8556 51.9766 30.493 53.8612 31.7679C55.8012 33.0428 57.2423 34.7333 58.1846 36.8397C59.1824 38.946 59.6812 41.2186 59.6812 43.6575C59.6812 46.0964 59.1824 48.369 58.1846 50.4753C57.2423 52.5816 55.8012 54.2722 53.8612 55.5471C51.9766 56.8219 49.6208 57.4594 46.7939 57.4594ZM13.7026 27.6938C10.8757 27.6938 8.51998 27.0564 6.63538 25.7815C4.75078 24.5066 3.30962 22.816 2.31189 20.7097C1.31417 18.548 0.815302 16.2754 0.815302 13.8919C0.815302 11.3976 1.31417 9.125 2.31189 7.07412C3.30962 4.96781 4.75078 3.27721 6.63538 2.00234C8.51998 0.727464 10.8757 0.0900266 13.7026 0.0900266C16.5295 0.0900266 18.8853 0.727464 20.7699 2.00234C22.6545 3.27721 24.0679 4.96781 25.0102 7.07412C26.0079 9.125 26.5068 11.3976 26.5068 13.8919C26.5068 16.2754 26.0079 18.548 25.0102 20.7097C24.0679 22.816 22.6545 24.5066 20.7699 25.7815C18.8853 27.0564 16.5295 27.6938 13.7026 27.6938ZM13.7026 23.1209C16.5849 23.1209 18.6358 22.3449 19.8553 20.7929C21.0747 19.2409 21.6844 16.9405 21.6844 13.8919C21.6844 10.7879 21.0747 8.45985 19.8553 6.90783C18.6358 5.35581 16.5849 4.5798 13.7026 4.5798C10.8203 4.5798 8.76941 5.35581 7.54996 6.90783C6.38595 8.45985 5.80394 10.7879 5.80394 13.8919C5.80394 16.9405 6.38595 19.2409 7.54996 20.7929C8.76941 22.3449 10.8203 23.1209 13.7026 23.1209ZM46.7939 52.9696C49.6762 52.9696 51.7271 52.1936 52.9466 50.6416C54.166 49.0341 54.7757 46.7061 54.7757 43.6575C54.7757 40.5534 54.166 38.2254 52.9466 36.6734C51.7271 35.1214 49.6762 34.3453 46.7939 34.3453C43.967 34.3453 41.9439 35.1214 40.7244 36.6734C39.505 38.2254 38.8952 40.5534 38.8952 43.6575C38.8952 46.7061 39.505 49.0341 40.7244 50.6416C41.9439 52.1936 43.967 52.9696 46.7939 52.9696ZM10.8757 56.6279H4.88936L49.704 0.921466H55.6903L10.8757 56.6279Z" fill="#E8880E"/>
</svg>
