<svg width="89" height="101" viewBox="0 0 89 101" fill="none" xmlns="http://www.w3.org/2000/svg">
<path d="M65.8853 100.4C60.9582 100.4 56.7702 99.2669 53.3213 97.0004C49.9709 94.734 47.4088 91.7285 45.6351 87.9839C43.9599 84.2394 43.1223 80.1992 43.1223 75.8634C43.1223 71.5276 43.9599 67.4874 45.6351 63.7429C47.4088 59.9983 49.9709 56.9928 53.3213 54.7264C56.7702 52.4599 60.9582 51.3267 65.8853 51.3267C70.9108 51.3267 75.0988 52.4599 78.4492 54.7264C81.8982 56.9928 84.4602 59.9983 86.1354 63.7429C87.9092 67.4874 88.796 71.5276 88.796 75.8634C88.796 80.1992 87.9092 84.2394 86.1354 87.9839C84.4602 91.7285 81.8982 94.734 78.4492 97.0004C75.0988 99.2669 70.9108 100.4 65.8853 100.4ZM7.05626 47.4836C2.03067 47.4836 -2.15732 46.3504 -5.50772 44.0839C-8.85811 41.8175 -11.4202 38.812 -13.1939 35.0674C-14.9677 31.2243 -15.8545 27.1841 -15.8545 22.9469C-15.8545 18.5125 -14.9677 14.4724 -13.1939 10.8263C-11.4202 7.08178 -8.85811 4.07628 -5.50772 1.80984C-2.15732 -0.456608 2.03067 -1.58983 7.05626 -1.58983C12.0819 -1.58983 16.2698 -0.456608 19.6202 1.80984C22.9706 4.07628 25.4834 7.08178 27.1586 10.8263C28.9324 14.4724 29.8192 18.5125 29.8192 22.9469C29.8192 27.1841 28.9324 31.2243 27.1586 35.0674C25.4834 38.812 22.9706 41.8175 19.6202 44.0839C16.2698 46.3504 12.0819 47.4836 7.05626 47.4836ZM7.05626 39.354C12.1804 39.354 15.8264 37.9744 17.9943 35.2152C20.1622 32.4561 21.2462 28.3666 21.2462 22.9469C21.2462 17.4286 20.1622 13.2899 17.9943 10.5307C15.8264 7.77156 12.1804 6.39199 7.05626 6.39199C1.93213 6.39199 -1.71389 7.77156 -3.88179 10.5307C-5.95115 13.2899 -6.98583 17.4286 -6.98583 22.9469C-6.98583 28.3666 -5.95115 32.4561 -3.88179 35.2152C-1.71389 37.9744 1.93213 39.354 7.05626 39.354ZM65.8853 92.4183C71.0094 92.4183 74.6554 91.0387 76.8233 88.2796C78.9912 85.4219 80.0751 81.2832 80.0751 75.8634C80.0751 70.3451 78.9912 66.2064 76.8233 63.4472C74.6554 60.6881 71.0094 59.3085 65.8853 59.3085C60.8597 59.3085 57.2629 60.6881 55.095 63.4472C52.9271 66.2064 51.8432 70.3451 51.8432 75.8634C51.8432 81.2832 52.9271 85.4219 55.095 88.2796C57.2629 91.0387 60.8597 92.4183 65.8853 92.4183ZM2.03067 98.922H-8.61176L71.0586 -0.111716H81.7011L2.03067 98.922Z" fill="#E8880E"/>
</svg>
