<svg width="74" height="64" viewBox="0 0 74 64" fill="none" xmlns="http://www.w3.org/2000/svg">
<path fill-rule="evenodd" clip-rule="evenodd" d="M49.2495 29.6655C43.0584 29.6655 38.0396 24.6467 38.0396 18.4556V0.596232H73.8173V29.6655L49.2495 29.6655ZM73.8174 63.2073H73.8175V0.596232H73.8173V0.596074L38.0396 0.596069V0.596232H33.5668V0.596069L0.0251523 0.596073L0.0251541 29.6655H0.0258691V34.138H0.0251465V63.2074H33.5668V63.2073H38.0396V63.2074H73.8174V63.2073ZM73.8174 63.2073H38.0396V45.3479C38.0396 39.1568 43.0584 34.138 49.2495 34.138H73.8174V63.2073ZM33.5668 63.2073V45.3479C33.5668 39.1568 28.548 34.138 22.3569 34.138H0.0258691V63.2073H33.5668ZM0.0258691 29.6655L22.3569 29.6655C28.548 29.6655 33.5668 24.6467 33.5668 18.4556V0.596232H0.0258691V29.6655Z" fill="#E8880E"/>
</svg>
