<svg width="332" height="224" viewBox="0 0 332 224" fill="none" xmlns="http://www.w3.org/2000/svg">
<path d="M121.298 182.315L82.3816 143.399L92.2017 133.579C103.113 122.667 113.661 116.242 123.844 114.302C134.271 112.12 147.243 113.696 162.761 119.03L195.495 129.942C210.043 134.791 222.288 137.822 232.229 139.034C242.413 140.004 252.112 135.882 261.326 126.668C268.358 119.636 273.207 112.362 275.874 104.846C278.541 97.3291 277.814 88.8425 273.692 79.3861C270.055 69.9297 262.053 59.0185 249.687 46.6524C235.624 32.589 223.015 23.1326 211.862 18.2832C200.95 13.6762 190.767 12.9488 181.31 16.1009C171.854 19.2531 162.155 25.7998 152.214 35.7411L146.758 41.1968L107.841 2.28003L113.661 -3.5393C128.209 -18.0876 144.576 -27.9077 162.761 -32.9997C181.431 -38.0916 201.193 -37.2429 222.045 -30.4537C243.383 -23.6645 264.963 -9.35862 286.786 12.4639C306.668 32.3466 319.64 51.3806 325.702 69.566C332.249 87.7514 333.098 104.846 328.248 120.849C323.884 136.852 315.397 151.158 302.789 163.766C291.392 175.163 279.269 182.437 266.418 185.589C254.052 188.741 241.686 189.468 229.32 187.771C216.954 186.074 205.194 183.285 194.04 179.406L163.489 167.767C155.487 165.1 149.061 164.251 144.212 165.221C139.605 165.949 134.998 168.616 130.391 173.223L121.298 182.315ZM44.9197 265.241L0.547315 220.869L54.3761 167.04L98.7485 211.412L44.9197 265.241Z" fill="#E8880E"/>
</svg>
